<svg xmlns="http://www.w3.org/2000/svg" xmlns:svg="http://www.w3.org/2000/svg" id="svg3696" width="374.76" height="559.164" version="1.1" viewBox="0 0 148.733 221.918"><metadata id="metadata3693"/><g id="layer1" transform="translate(-34.038881,-14.605561)"><path style="fill:none;fill-rule:evenodd;stroke:#000;stroke-width:16;stroke-linecap:round;stroke-miterlimit:4;stroke-dasharray:none;stroke-opacity:.78431374;opacity:.8" id="path3698" d="m -115.51302,-88.81884 c 2.99428,2.956371 -2.50786,5.494798 -4.91369,4.976689 -6.51964,-1.404044 -7.61935,-9.736426 -5.03969,-14.804056 4.61441,-9.064803 16.73974,-10.200543 24.69443,-5.102703 11.673814,7.481289 12.857506,23.837815 5.165702,34.584804 -10.251962,14.324047 -30.969472,15.546726 -44.475172,5.22871 -16.99554,-12.984171 -18.25262,-38.117144 -5.29172,-54.365544 15.69739,-19.67899 45.27383,-20.96816 64.255921,-5.35472 22.369734,18.39989 23.689758,52.43613 5.417725,74.146288 -21.095784,25.065237 -59.602186,26.415402 -84.036666,5.480731 -27.764,-23.787305 -29.14387,-66.770869 -5.54373,-93.927039 26.47579,-30.46511 73.94148,-31.87439 103.817405,-5.60674 33.16794,29.16208 34.60646,81.11354 5.669746,113.707782 -0.05628,0.0634 -0.112664,0.126712 -0.169141,0.189939" transform="rotate(-90,95.769542,-108.40532)"/><ellipse id="path3706" cx="115.661" cy="216.869" rx="21.167" ry="19.655" style="stroke-width:.26458332;opacity:.8;stroke:#000;stroke-opacity:.78431374;fill:#000;fill-opacity:.78431374"/></g></svg>