<?xml version="1.0" encoding="UTF-8" standalone="no"?>
<!-- Created with Inkscape (http://www.inkscape.org/) -->

<svg
   xmlns:dc="http://purl.org/dc/elements/1.1/"
   xmlns:cc="http://creativecommons.org/ns#"
   xmlns:rdf="http://www.w3.org/1999/02/22-rdf-syntax-ns#"
   xmlns:svg="http://www.w3.org/2000/svg"
   xmlns="http://www.w3.org/2000/svg"
   xmlns:sodipodi="http://sodipodi.sourceforge.net/DTD/sodipodi-0.dtd"
   xmlns:inkscape="http://www.inkscape.org/namespaces/inkscape"
   width="99.155296mm"
   height="147.9455mm"
   viewBox="0 0 148.73295 221.91825"
   version="1.1"
   id="svg3696"
   inkscape:version="0.92.1 r15371"
   sodipodi:docname="questionmark.svg">
  <defs
     id="defs3690" />
  <sodipodi:namedview
     id="base"
     pagecolor="#ffffff"
     bordercolor="#666666"
     borderopacity="1.0"
     inkscape:pageopacity="0.0"
     inkscape:pageshadow="2"
     inkscape:zoom="0.35"
     inkscape:cx="-657.22231"
     inkscape:cy="51.846577"
     inkscape:document-units="mm"
     inkscape:current-layer="layer1"
     showgrid="false"
     inkscape:window-width="1368"
     inkscape:window-height="849"
     inkscape:window-x="-8"
     inkscape:window-y="-8"
     inkscape:window-maximized="1"
     showborder="true"
     fit-margin-top="0"
     fit-margin-left="0"
     fit-margin-right="0"
     fit-margin-bottom="0"
     scale-x="1.5" />
  <metadata
     id="metadata3693">
    <rdf:RDF>
      <cc:Work
         rdf:about="">
        <dc:format>image/svg+xml</dc:format>
        <dc:type
           rdf:resource="http://purl.org/dc/dcmitype/StillImage" />
        <dc:title></dc:title>
      </cc:Work>
    </rdf:RDF>
  </metadata>
  <g
     inkscape:label="Layer 1"
     inkscape:groupmode="layer"
     id="layer1"
     transform="translate(-34.038881,-14.605561)">
    <path
       sodipodi:type="spiral"
       style="fill:none;fill-rule:evenodd;stroke:#000000;stroke-width:16;stroke-linecap:round;stroke-miterlimit:4;stroke-dasharray:none;stroke-opacity:0.78431374;opacity:0.8"
       id="path3698"
       sodipodi:cx="-115.51302"
       sodipodi:cy="-88.81884"
       sodipodi:expansion="1"
       sodipodi:revolution="3.0004816"
       sodipodi:radius="83.937767"
       sodipodi:argument="-18.070528"
       sodipodi:t0="0"
       d="m -115.51302,-88.81884 c 2.99428,2.956371 -2.50786,5.494798 -4.91369,4.976689 -6.51964,-1.404044 -7.61935,-9.736426 -5.03969,-14.804056 4.61441,-9.064803 16.73974,-10.200543 24.69443,-5.102703 11.673814,7.481289 12.857506,23.837815 5.165702,34.584804 -10.251962,14.324047 -30.969472,15.546726 -44.475172,5.22871 -16.99554,-12.984171 -18.25262,-38.117144 -5.29172,-54.365544 15.69739,-19.67899 45.27383,-20.96816 64.255921,-5.35472 22.369734,18.39989 23.689758,52.43613 5.417725,74.146288 -21.095784,25.065237 -59.602186,26.415402 -84.036666,5.480731 -27.764,-23.787305 -29.14387,-66.770869 -5.54373,-93.927039 26.47579,-30.46511 73.94148,-31.87439 103.817405,-5.60674 33.16794,29.16208 34.60646,81.11354 5.669746,113.707782 -0.05628,0.0634 -0.112664,0.126712 -0.169141,0.189939"
       transform="rotate(-90,95.769542,-108.40532)" />
    <ellipse
       id="path3706"
       cx="115.66072"
       cy="216.86905"
       rx="21.166666"
       ry="19.654762"
       style="stroke-width:0.26458332;opacity:0.8;stroke:#000000;stroke-opacity:0.78431374;fill:#000000;fill-opacity:0.78431374" />
  </g>
</svg>
